<svg xmlns="http://www.w3.org/2000/svg" xmlns:xlink="http://www.w3.org/1999/xlink" fill="none" viewBox="0 0 200 200"><path fill="#C2E7FF" d="M117.967 128.533a28.873 28.873 0 0 1-10.185-9.918l.04.07c-21.577.833-26.93-2.548-34.866-14.35-6.147-.709-11.843 1.156-17.023 4.554-5.677 3.726-10.74 9.294-15.083 15.333-9.311 12.928-15.37 28.006-17.307 31.741-4.728 9.107 1.752 17.592 8.752 17.592h135.333c3.042 0 6.739-3.124 6.709-8.748-.061-11.179-7.565-33.254-17.504-46.198a28.776 28.776 0 0 1-33.04 12.467"/><path stroke="#C2E7FF" stroke-linecap="round" stroke-linejoin="round" d="M117.967 128.533a28.873 28.873 0 0 1-10.185-9.918l.04.07c-21.577.833-26.93-2.548-34.866-14.35-6.147-.709-11.843 1.156-17.023 4.554-5.677 3.726-10.74 9.294-15.083 15.333-9.311 12.928-15.37 28.006-17.307 31.741-4.728 9.107 1.752 17.592 8.752 17.592h135.333c3.042 0 6.739-3.124 6.709-8.748-.061-11.179-7.565-33.254-17.504-46.198a28.776 28.776 0 0 1-33.04 12.467"/><path fill="#933222" fill-rule="evenodd" d="M136.291 75.066a10.746 10.746 0 0 0-.026-.227c-1.395-11.823-11.916-18.822-22.593-18.822-9.586 0-16.525 3.138-20.73 9.224l-.002.003-.231.341c-.12.17-.232.35-.333.51l-.047.075-.003.006a24.56 24.56 0 0 0-2.46 5.433c-1.857 5.755-2.212 13.017-1.096 21.66.375 2.915-.427 5-1.808 6.513-1.395 1.529-3.414 2.51-5.519 3.129-2.07.613-4.187.865-5.79.964a30.2 30.2 0 0 1-2.484.051l-.14-.005-.036-.002h-.01a.417.417 0 0 0-.368.649c3.98 5.916 7.356 9.796 12.496 12.062 5.121 2.257 11.937 2.888 22.733 2.471a.416.416 0 0 0 .339-.634 28.324 28.324 0 0 1 27.641-42.946.417.417 0 0 0 .467-.455Z" clip-rule="evenodd"/><path stroke="#1F1F1F" stroke-linecap="round" stroke-linejoin="round" d="M105.013 84.68a5.016 5.016 0 0 1 6.28-.657"/><path fill="#1F1F1F" fill-rule="evenodd" d="M26.56 173.559c0-.23.186-.416.416-.416h156.076a.417.417 0 1 1 0 .833H26.976a.417.417 0 0 1-.417-.417ZM88.431 129.41c-2.54 0-4.887 1.068-6.838 2.876-2.787 2.58-4.784 6.68-5.44 11.436l-.064.472 8.538.02.028-.039h16.119l-.067-.475a25.162 25.162 0 0 0-.399-2.165 22.313 22.313 0 0 0-.175-.687v-.002a7.883 7.883 0 0 1-.038-.139 6.58 6.58 0 0 0-.051-.182l-.033-.116a14.239 14.239 0 0 0-.099-.33l-.005-.015-.062-.197-.004-.013c-.02-.06-.038-.115-.052-.162-.031-.1-.061-.186-.09-.267l-.013-.038v-.003a22.848 22.848 0 0 0-.486-1.259v-.004l-.007-.025-.009-.024a4.597 4.597 0 0 0-.135-.315 17.615 17.615 0 0 0-.302-.656c-2.226-4.59-5.98-7.691-10.316-7.691Z" clip-rule="evenodd"/><path fill="#C4EED0" fill-rule="evenodd" d="M147.633 31.063c-6.643 0-12.029 5.385-12.029 12.03 0 6.643 5.386 12.029 12.029 12.029 6.644 0 12.03-5.386 12.03-12.03 0-6.644-5.386-12.03-12.03-12.03Z" clip-rule="evenodd"/><path fill="#1F1F1F" fill-rule="evenodd" d="M91.493 136.675c.724-.218 1.426-.224 2.044.073.891.425 1.401 1.371 1.64 2.562.24 1.2.225 2.739-.01 4.502v.001c-.519 3.871-2.117 8.949-4.626 14.212-.38.798-.769 1.574-1.167 2.33-2.308 4.394-4.87 8.064-7.22 10.477-1.173 1.204-2.31 2.113-3.351 2.636-1.035.519-2.05.691-2.91.28-.702-.334-1.168-.994-1.449-1.833-.28-.838-.391-1.895-.359-3.108.065-2.427.708-5.571 1.854-9.047v-.001a62.846 62.846 0 0 1 2.95-7.29 59.463 59.463 0 0 1 5.211-8.95l.001-.001.001-.002c1.754-2.446 3.513-4.381 5.103-5.587.796-.603 1.566-1.037 2.288-1.254Z" clip-rule="evenodd"/><path stroke="#1F1F1F" stroke-linecap="round" stroke-linejoin="round" d="m104.424 110.599-6.928-6.413M90.648 130.117l70.398 17.045"/><path fill="#933222" stroke="#1F1F1F" stroke-linecap="round" stroke-linejoin="round" d="m100.334 143.805-31.83-.077s-2.809 5.876-5.184 11.32c-2.376 5.444-6.356 5.761-4.508.137-2.537 7.069-5.902 4.472-5.555 2.372-2.408 3.447-4.515 2.61-4.004-1.492.818-6.602 4.467-26.439 23.911-25.245 2.157.034 5.319.741 8.737 1.739 4.84 1.411 11.84 3.285 16.496 4.691a21.698 21.698 0 0 1 1.937 6.555Z"/><path stroke="#1F1F1F" stroke-linecap="round" stroke-linejoin="round" d="M67.507 138.828s-4.281 3.613-5 5.293c-.718 1.679-3.735 11.092-3.735 11.092M62.51 137.636s-4.686 4.746-5.488 6.387c-.802 1.641-3.831 13.611-3.831 13.611"/><path fill="#933222" stroke="#1F1F1F" stroke-linecap="round" stroke-linejoin="round" d="M58.293 135.558c-2.15 1.918-3.797 4.259-5.058 6.69l-2.337.417c-5.72.926-8.618-1.881-3.18-3.463 3.925-1.143 8.42-2.818 10.575-3.644Z"/><path fill="#fff" stroke="#1F1F1F" stroke-linecap="round" stroke-linejoin="round" d="m102.783 167.248-.896 1.544a2.32 2.32 0 0 1-2.32 1.138 2.322 2.322 0 0 1-.86-.295l-1.433-.833a2.318 2.318 0 0 1-1.08-1.414 2.326 2.326 0 0 1 .236-1.764l.655-1.128c1.934.989 3.945 1.976 5.698 2.752Z"/><path fill="#933222" stroke="#1F1F1F" stroke-linecap="round" stroke-linejoin="round" d="M114.555 159.265c1.193 2.648 1.341 7.837-5.383 4.841 0 0 1.437 5.481-2.557 4.564-4.202-.964-17.408-8.394-17.61-8.518l-12.668-.269a62.358 62.358 0 0 1 2.93-7.242 59.057 59.057 0 0 1 5.175-8.889h24.3l3.447 3.333c1.95-.74 3.274-.452 3.889.997 2.129 3.337 6.233 10.331-1.523 11.183Z"/><path stroke="#1F1F1F" stroke-linecap="round" stroke-linejoin="round" d="M114.555 159.263c-3.907-.655-7.298-2.333-11.257-4.664M109.174 164.104c-3.452-1.378-4.887-1.829-8.646-4.309"/><path fill="#fff" stroke="#1F1F1F" stroke-linecap="round" stroke-linejoin="round" d="m125.383 128.326-13.792 23.755-5.702-2.744 14.039-24.178 5.455 3.167Z"/><path stroke="#1F1F1F" stroke-linecap="round" stroke-linejoin="round" d="m112.909 152.715-1.318-.633-5.702-2.745-1.389-.668M155.033 103.626a22.7 22.7 0 0 1-15.372 21.453 22.694 22.694 0 0 1-25.275-7.595 22.693 22.693 0 0 1 9.789-35.065 22.696 22.696 0 0 1 13.834-.798 22.728 22.728 0 0 1 17.024 22.005Z"/><path fill="#fff" fill-rule="evenodd" d="M161.046 103.625c0 15.871-12.866 28.737-28.737 28.737-15.871 0-28.737-12.866-28.737-28.737 0-15.871 12.866-28.737 28.737-28.737 15.871 0 28.737 12.866 28.737 28.737Zm-10.26 13.191a22.7 22.7 0 0 0 4.247-13.191 22.725 22.725 0 0 0-17.024-22.005 22.695 22.695 0 0 0-23.623 35.863 22.694 22.694 0 0 0 36.4-.667Z" clip-rule="evenodd"/><path fill="#1F1F1F" d="m155.033 103.625.5.001v-.001h-.5Zm-4.247 13.191.406.291-.406-.291Zm-.503-27.103.395-.306-.395.306Zm-12.274-8.093.126-.484h-.001l-.125.484Zm-13.834.798.18.466-.18-.466Zm-10.792 8.693-.417-.275.417.275Zm-3.726 13.347-.5.019.5-.019Zm4.729 13.025.395-.306-.395.306Zm25.275 7.595.161.473-.161-.473Zm-7.352 7.784c16.147 0 29.237-13.09 29.237-29.237h-1c0 15.595-12.642 28.237-28.237 28.237v1Zm-29.237-29.237c0 16.147 13.09 29.237 29.237 29.237v-1c-15.595 0-28.237-12.642-28.237-28.237h-1Zm29.237-29.237c-16.147 0-29.237 13.09-29.237 29.237h1c0-15.595 12.642-28.237 28.237-28.237v-1Zm29.237 29.237c0-16.147-13.09-29.237-29.237-29.237v1c15.595 0 28.237 12.642 28.237 28.237h1Zm-7.013 0a22.19 22.19 0 0 1-4.154 12.899l.813.583a23.195 23.195 0 0 0 4.341-13.481l-1-.001Zm-4.646-13.606a22.22 22.22 0 0 1 4.646 13.606h1a23.224 23.224 0 0 0-4.855-14.218l-.791.612Zm-12.003-7.915a22.226 22.226 0 0 1 12.003 7.915l.791-.612a23.223 23.223 0 0 0-12.543-8.271l-.251.968Zm-13.529.78a22.194 22.194 0 0 1 13.529-.78l.25-.969a23.196 23.196 0 0 0-14.139.816l.36.933Zm-10.554 8.502a22.19 22.19 0 0 1 10.554-8.502l-.36-.933a23.193 23.193 0 0 0-11.029 8.885l.835.55Zm-3.644 13.053a22.193 22.193 0 0 1 3.644-13.053l-.835-.55a23.198 23.198 0 0 0-3.809 13.641l1-.038Zm4.624 12.738a22.187 22.187 0 0 1-4.624-12.738l-1 .038a23.198 23.198 0 0 0 4.833 13.312l.791-.612Zm11.169 7.676a22.197 22.197 0 0 1-11.169-7.676l-.791.612a23.192 23.192 0 0 0 11.672 8.022l.288-.958Zm13.55-.248a22.198 22.198 0 0 1-13.55.248l-.288.958a23.19 23.19 0 0 0 14.16-.26l-.322-.946Zm10.879-8.081a22.197 22.197 0 0 1-10.879 8.081l.322.946a23.198 23.198 0 0 0 11.37-8.444l-.813-.583Z"/><path fill="#C2E7FF" stroke="#1F1F1F" stroke-linecap="round" stroke-linejoin="round" d="M152.611 113.854a22.732 22.732 0 0 1-32.687 8.844 22.726 22.726 0 0 1-8.239-9.49l14.717-10.63c1.985.045 3.963.256 5.913.63 2.164.39 4.295.947 6.374 1.666 4.63 1.602 9.767 4.334 13.922 8.98Z"/><path fill="#1F1F1F" fill-rule="evenodd" d="m132.324 103.2-.398-.123-4.675 15.117 1.147-1.073.022-.021.066-.061.248-.237a120.76 120.76 0 0 0 3.864-3.868c2.277-2.387 4.951-5.403 6.455-7.853l-.355-.218-.355-.218-.067.108-5.952-1.553Zm-4.211 13.617.285.304-.285-.304Z" clip-rule="evenodd"/><path fill="#933222" stroke="#1F1F1F" stroke-linecap="round" stroke-linejoin="round" d="M138.179 81.846C136.239 110.6 128.92 122 117.02 120.44a22.738 22.738 0 0 1-4.689-27.619 22.734 22.734 0 0 1 25.678-11.2l.17.226Z"/><path fill="#1F1F1F" fill-rule="evenodd" d="M128.504 90.992c-.35 0-.612.217-.766.454-.157.24-.24.548-.24.867 0 .318.083.626.24.866.154.237.416.454.766.454.349 0 .611-.217.765-.454.157-.24.24-.548.24-.866 0-.319-.083-.626-.24-.867-.154-.237-.416-.454-.765-.454Z" clip-rule="evenodd"/><path stroke="#1F1F1F" stroke-linecap="round" stroke-linejoin="round" d="M120.322 94.706c-1.135 6.22 1.989 13.459 1.989 13.459l-4.3-.792M133.085 85.95a5.015 5.015 0 0 0-3.797-1.52 5.023 5.023 0 0 0-3.668 1.81M120.163 35.002c-6.144 3.432-12.324 6.78-15.348 17.593C93.861 24.619 51.559 1.162 17 78.093"/><path fill="#1F1F1F" fill-rule="evenodd" d="M23.74 155.594a.417.417 0 0 1 .178.562c-4.593 8.846 1.713 16.984 8.382 16.984a.416.416 0 1 1 0 .833c-7.331 0-13.985-8.833-9.122-18.201a.416.416 0 0 1 .562-.178Z" clip-rule="evenodd"/><path stroke="#1F1F1F" stroke-linecap="round" stroke-linejoin="round" d="m107.787 118.615.041.07c-21.578.833-26.93-2.548-34.867-14.35"/><path fill="#3C4043" stroke="#1F1F1F" stroke-linecap="round" stroke-linejoin="round" d="M135.852 74.888c-1.365-11.57-11.667-18.456-22.18-18.456-7.848 0-13.846 2.122-18.011 6.217a16.502 16.502 0 1 0-30.965 7.061A16.502 16.502 0 0 0 46.94 97.465c-6.168 1.258-18.603 4.711-20.951 12.428-3.149 10.344 34.31 21.744 37.459 11.4 2.17-7.131-4.846-16.043-9.413-20.889a16.504 16.504 0 0 0 17.574-9.387 16.508 16.508 0 0 0-.496-14.818 16.504 16.504 0 0 0 18.359-1.502c-1.111 5.153-1.217 11.342-.293 18.518.78 6.058-3.333 8.834-7.622 10.095 0 0 18.854-.897 15.69-19.367-1.668-9.744 7.245-11.548 9.345-3.044 7.002-9.767 11.5-7.55 16.134-4.38a28.925 28.925 0 0 1 13.148-1.413 6.603 6.603 0 0 0-.022-.218Z"/><path fill="#FFBB29" fill-rule="evenodd" d="M164.563 63.808a3.254 3.254 0 0 0-3.254 3.253v15.652a3.254 3.254 0 0 0 3.254 3.254h15.652a3.254 3.254 0 0 0 3.254-3.254V67.061a3.254 3.254 0 0 0-3.254-3.253h-15.652Z" clip-rule="evenodd"/><path fill="#1F1F1F" fill-rule="evenodd" d="M179.798 64.41c0-.23.187-.417.417-.417a3.252 3.252 0 0 1 3.253 3.254v15.652a.416.416 0 1 1-.833 0V67.247a2.42 2.42 0 0 0-2.42-2.42.417.417 0 0 1-.417-.417ZM147.626 31.898a11.194 11.194 0 0 0-11.195 11.194.416.416 0 1 1-.833 0 12.018 12.018 0 0 1 3.523-8.505 12.032 12.032 0 0 1 8.505-3.523.417.417 0 1 1 0 .834Z" clip-rule="evenodd"/></svg>
